<?xml version="1.0" encoding="UTF-8" standalone="no"?>
<!DOCTYPE svg PUBLIC "-//W3C//DTD SVG 1.1//EN" "http://www.w3.org/Graphics/SVG/1.1/DTD/svg11.dtd">
<svg width="100%" height="100%" viewBox="0 0 2048 2048" version="1.1" xmlns="http://www.w3.org/2000/svg" xmlns:xlink="http://www.w3.org/1999/xlink" xml:space="preserve" xmlns:serif="http://www.serif.com/" style="fill-rule:evenodd;clip-rule:evenodd;stroke-linejoin:round;stroke-miterlimit:2;">
    <g transform="matrix(1,0,0,1,-4196,0)">
        <rect id="Artboard6" x="4196" y="0" width="2048" height="2048" style="fill:none;"/>
        <g id="Artboard61" serif:id="Artboard6">
            <g transform="matrix(0.666302,0,0,0.666302,4500.602842,382.488948)">
                <g transform="matrix(2,0,0,2,0,0)">
                    <path d="M638.497,340.524L637.462,341.142C634.889,342.955 619.657,359.012 615.073,363.064C598.052,378.112 598.375,378.323 582.328,394.288C582.111,394.504 574.539,398.998 579.626,391.568C582.065,388.005 581.845,387.94 594.517,363.509C622.784,309.011 622.952,309.187 625.336,304.418C633.927,287.236 651.543,255.153 652.002,254.235C666.734,224.792 667.539,225.289 683.292,196.391C717.535,133.574 789.155,102.993 852.158,146.95C857.039,150.355 865.559,159.191 866.655,160.327C897.468,192.283 898.009,234.731 892.471,257.493C882.116,300.059 857.884,317.856 844.554,328.566C805.979,359.56 750.826,365.453 700.412,375.005C698.925,375.287 692.297,376.542 683.543,383.559C678.544,387.565 577.732,455.86 571.602,460.638C570.118,461.794 558.075,471.179 552.397,474.207C551.983,474.428 546.472,475.617 550.892,467.722C551.397,466.821 554.882,460.596 557.973,456.929C568.245,444.742 620.624,365.158 639.22,342.403C646.099,335.24 646.378,335.352 646.384,334.499C646.406,331.448 642.387,335.05 642.129,335.281C640.599,336.653 633.358,338.905 637.557,340.632C637.849,340.752 638.205,340.404 638.497,340.524Z" style="fill:rgb(250,197,6);"/>
                </g>
                <g transform="matrix(2,0,0,2,0,0)">
                    <path d="M724.595,226.481C725.735,248.949 788.507,301.46 801.365,296.119C795.42,307.143 795.055,310.027 794.063,313.325C772.118,322.871 708.812,307.053 708.06,243.511C708.046,242.347 708.084,241.64 708.092,241.478C708.268,238.183 708.606,238.317 709.134,235.069C717.358,231.643 716.561,230.313 724.595,226.481Z" style="fill:rgb(58,59,64);"/>
                </g>
                <g transform="matrix(2,0,0,2,0,0)">
                    <path d="M737.58,213.532C733.808,216.206 733.355,215.947 731.8,220.247C731.069,220.463 727.677,221.463 724.595,226.481C716.561,230.313 717.358,231.643 709.134,235.069C704.954,234.663 691.51,237.028 685.668,221.45C682.246,212.324 688.775,193.863 712.505,194.207C736.989,194.563 736.427,198.904 741.5,198.497C743.1,198.369 743.1,198.514 744.233,199.7C748.385,204.043 741.018,206.891 737.58,213.532Z" style="fill:rgb(99,180,234);"/>
                </g>
                <g transform="matrix(2,0,0,2,0,0)">
                    <path d="M813.372,281.263C817.833,278.355 821.037,269.447 826.036,275.704C826.191,275.897 825.847,276.021 827.042,278.623C834.343,294.52 840.841,334.357 815.529,335.912C802.862,336.69 795.356,324.685 794.744,319.449C794.686,318.96 794.693,318.996 794.063,313.325C795.055,310.027 795.42,307.143 801.365,296.119C803.115,294.561 803.902,293.466 804.088,293.207C806.656,289.633 807.007,289.925 807.047,289.551C807.1,289.058 806.678,288.591 806.731,288.098C809.872,286.687 810.066,286.73 813.372,281.263Z" style="fill:rgb(98,180,232);"/>
                </g>
                <g transform="matrix(2,0,0,2,0,0)">
                    <path d="M731.8,220.247C736.099,226.477 760.462,261.784 800.771,285.016C801.236,285.284 803.371,286.514 806.731,288.098C806.678,288.591 807.1,289.058 807.047,289.551C807.007,289.925 806.656,289.633 804.088,293.207C803.902,293.466 803.115,294.561 801.365,296.119C788.507,301.46 725.735,248.949 724.595,226.481C727.677,221.463 731.069,220.463 731.8,220.247Z" style="fill:rgb(253,252,251);"/>
                </g>
                <g transform="matrix(2,0,0,2,0,0)">
                    <path d="M737.58,213.532C737.921,215.033 752.457,237.623 782.824,262.073C786.706,265.198 808.451,280.906 811.613,281.237C811.753,281.252 811.743,281.239 813.372,281.263C810.066,286.73 809.872,286.687 806.731,288.098C803.371,286.514 801.236,285.284 800.771,285.016C760.462,261.784 736.099,226.477 731.8,220.247C733.355,215.947 733.808,216.206 737.58,213.532Z" style="fill:rgb(59,60,61);"/>
                </g>
                <g transform="matrix(2,0,0,2,0,0)">
                    <path d="M811.501,239.493C846.34,246.879 834.726,288.396 828.776,276.35C828.647,276.09 823.011,258.36 807.388,250.712C805.909,249.988 786.156,244.32 800.594,239.866C803.58,238.945 803.597,239.416 811.501,239.493Z" style="fill:rgb(61,60,56);"/>
                </g>
                <g transform="matrix(2,0,0,2,0,0)">
                    <path d="M760.866,207.019C754.023,201.211 752.356,200.399 743.527,197.435C737.771,195.504 741.057,185.687 759.575,190.227C784.931,196.443 783.413,229.912 775.435,226.63C770.765,224.709 774.901,220.882 760.866,207.019Z" style="fill:rgb(59,59,58);"/>
                </g>
                <g transform="matrix(2,0,0,2,0,0)">
                    <path d="M755.4,302.772C753.887,302.123 744.192,297.97 737.752,292.196C736.145,290.756 724.44,280.262 721.827,270.435C720.163,264.177 749.205,273.455 759.868,299.34C762.839,306.552 757,303.284 755.4,302.772Z" style="fill:rgb(239,104,103);"/>
                </g>
                <g transform="matrix(2,0,0,2,0,0)">
                    <path d="M857.446,267.494C857.297,268.401 855.404,279.917 849.777,276.05C844.386,272.345 855.161,258.032 841.047,237.829C833.679,227.283 844.139,226.072 848.033,230.914C848.808,231.878 852.578,236.566 855.293,244.575C858.924,255.283 857.689,263.295 857.446,267.494Z" style="fill:rgb(62,59,55);"/>
                </g>
                <g transform="matrix(2,0,0,2,0,0)">
                    <path d="M759.512,166.794C760.993,166.816 770.928,165.854 782.274,171.915C793.233,177.769 786.4,184.286 781.488,181.523C761.298,170.169 745.687,180.805 741.677,176.355C740.593,175.153 737.505,168.424 759.512,166.794Z" style="fill:rgb(64,61,55);"/>
                </g>
                <g transform="matrix(2,0,0,2,54.925351,-132.539301)">
                    <path d="M479.257,1000.944C457.318,993.372 443.321,981.372 431.996,968.087C384.286,912.117 414.411,842.978 417.661,832.559C421.941,818.836 426.558,813.731 431.34,803.436C436.565,792.185 439.546,790.068 441.065,787.248C449.766,771.088 453.148,768.8 464.888,749.761C473.517,735.765 475.116,736.526 477.157,727.434C477.57,725.596 482.167,705.123 482.235,704.444C482.896,697.836 483.476,698.034 484.49,691.499C488.445,666.012 499.515,624.182 510.394,560.473C511.195,555.784 513.881,556.553 514.218,558.601C516.77,574.113 516.063,574.191 516.312,575.533C521.587,604.014 520.524,604.185 522.398,610.528C524.161,616.496 539.403,705.292 539.412,705.505C540.159,723.147 541.941,723.014 541.531,724.486C539.657,731.21 542.046,731.062 542.448,730.754C544.363,729.283 543.969,729.014 543.754,726.652C543.604,725.011 544.265,725.102 544.062,723.499C541.985,707.079 543.766,707.106 544.199,690.488C545.379,645.313 544.272,645.211 545.406,641.455C547.316,635.131 550.607,645.844 550.779,646.403C563.632,688.246 566.401,698.861 567.603,703.466C567.82,704.3 568.785,705.26 569.186,706.59C576.427,730.61 577.273,730.418 577.244,732.596C577.185,736.972 578.755,736.482 580.023,740.71C594.661,789.518 594.977,789.344 596.231,793.587C602.012,813.154 606.606,827.776 606.749,828.435C609.202,839.766 611.623,842.431 613.746,857.456C614.471,862.593 619.294,866.32 618.92,900.491C618.731,917.749 610.438,942.616 603.146,954.299C591.41,973.1 576.471,983.737 573.662,985.736C571.246,987.465 556.538,997.984 540.475,1002.406C509.141,1011.033 483.899,1002.511 479.257,1000.944Z" style="fill:rgb(92,164,242);"/>
                </g>
                <g transform="matrix(1.118852,-0.069946,0.074563,1.192707,-189.790496,-251.779747)">
                    <clipPath id="_clip1">
                        <rect x="913" y="1618" width="63" height="232.445"/>
                    </clipPath>
                    <g clip-path="url(#_clip1)">
                        <path d="M924.515,1622.804C924.515,1622.804 913.4,1648.586 918.084,1661.368C922.479,1673.36 933.87,1707.954 927.302,1730.522C925.518,1736.652 919.238,1749.161 917.191,1761.184C914.759,1775.464 922.24,1783.351 921.399,1792.005C920.656,1799.65 912.145,1813.108 912.145,1813.108C926.217,1823.551 942.252,1831.01 959.511,1836.605C963.81,1823.658 964.919,1810.301 963.461,1796.615C963.461,1796.615 959.526,1777.954 960.961,1765.269C962.095,1755.246 970.091,1742.888 970.613,1735.086C971.604,1720.278 970.557,1690.562 970.557,1690.562C970.557,1690.562 965.293,1667.83 967.812,1654.18C970.072,1641.932 976.742,1630.246 976,1618L924.515,1622.804Z" style="fill:rgb(0,102,255);"/>
                    </g>
                </g>
                <g transform="matrix(-1.118852,-0.069946,-0.074563,1.192707,2346.274325,-250.681547)">
                    <path d="M924.515,1622.804C924.515,1622.804 920.399,1641.89 919.818,1651.598C919.318,1659.96 924.361,1677.339 923.602,1695.169C922.906,1711.486 914.754,1728.451 913.231,1745.629C911.959,1759.983 915.635,1774.018 915.8,1785.302C916.036,1801.481 913.183,1812.248 913.183,1812.248C913.183,1812.248 926.981,1821.267 933.941,1824.859C941.825,1828.928 960.489,1836.663 960.489,1836.663C960.514,1822.403 961.992,1806.819 961.235,1790.677C960.649,1778.19 957.547,1765.3 958.803,1752.865C960.453,1736.532 969.815,1720.995 970.588,1706.329C971.673,1685.74 966.913,1667.518 967.788,1655.188C968.686,1642.525 972.607,1630.502 976,1618L924.515,1622.804Z" style="fill:rgb(0,102,255);"/>
                </g>
                <g transform="matrix(2,0,0,2,54.925351,-132.539301)">
                    <path d="M511.489,902.214C514.481,902.404 515.058,901.976 520.283,903.992C538.025,910.835 544.528,954.338 521.463,949.666C507.966,946.932 507.912,949.9 497.48,949.926C482.671,949.963 483.244,904.697 511.489,902.214Z" style="fill:rgb(55,58,66);"/>
                </g>
                <g transform="matrix(2,0,0,2,54.925351,-132.539301)">
                    <path d="M478.613,874.061C461.376,872.457 459.366,879.412 451.468,879.774C439.455,876.261 460.815,853.164 483.311,861.95C500.199,868.545 500.614,881.554 491.504,878.488C486.34,876.751 486.803,875.355 478.613,874.061Z" style="fill:rgb(53,61,73);"/>
                </g>
                <g transform="matrix(2,0,0,2,54.925351,-132.539301)">
                    <path d="M544.326,874.038C538.554,875.303 538.716,875.645 533.318,878.098C526.132,881.363 524.311,874.101 529.83,868.835C554.305,845.481 586.289,875.551 572.531,879.759C566.001,879.351 558.628,871.891 544.326,874.038Z" style="fill:rgb(53,61,71);"/>
                </g>
                <g transform="matrix(2,0,0,2,54.925351,-132.539301)">
                    <path d="M572.458,844.664C575.096,845.404 588.215,847.41 584.619,853.585C578.61,863.904 527.233,833.146 544.361,827.116C551.132,824.732 548.751,836.646 572.458,844.664Z" style="fill:rgb(51,61,73);"/>
                </g>
                <g transform="matrix(2,0,0,2,54.925351,-132.539301)">
                    <path d="M453.543,853.653C452.13,854.031 439.609,859.008 438.767,851.487C437.971,844.369 455.281,849.379 471.436,832.434C474.69,829.021 473.827,827.468 478.472,827.014C479.012,826.961 487.797,828.263 479.387,837.394C469.895,847.701 455.838,852.818 453.543,853.653Z" style="fill:rgb(52,62,74);"/>
                </g>
                <g transform="matrix(2,0,0,2,-19.927966,-61.156292)">
                    <path d="M685.498,480.655C669.22,480.468 643.742,481.699 640.904,479.043C638.122,476.44 643.586,475.023 688.449,462.309C728.552,450.945 728.183,449.958 731.669,448.99C784.743,434.245 828.178,418.306 862.488,411.439C925.497,398.83 959.907,428.074 961.234,428.911C1002.417,454.917 1025.617,525.066 986.079,578.201C974.772,593.397 971.02,593.597 964.333,600.334C961.959,602.725 957.019,604.355 955.626,605.617C946.39,613.986 905.736,627.31 871.555,620.264C857.973,617.464 836.224,619.08 756.804,563.056C747.891,556.769 747.737,557.171 738.817,551.046C730.524,545.352 729.821,547.128 714.409,543.964C659.404,532.67 659.31,533.288 654.55,532.213C609.099,521.947 563.213,514.294 561.413,513.696C560.485,513.388 556.234,510.539 562.53,509.632C612.103,502.487 615.397,500.44 691.566,487.808C718.371,483.363 718.458,484.557 720.727,483.934C723.096,483.284 722.276,481.281 719.501,481.443C707.96,482.116 695.562,480.72 685.498,480.655Z" style="fill:rgb(123,192,3);"/>
                </g>
                <g transform="matrix(2,0,0,2,-19.927966,-61.156292)">
                    <path d="M883.531,548.811C865.646,551.526 868.672,557.156 867.57,561.518C864.527,573.569 854.33,576.39 854.03,569.521C853.901,566.566 869.937,550.814 848.206,536.988C839.748,531.606 847.051,526.473 852.305,528.997C864.959,535.076 861.6,544.4 870.341,541.067C902.684,528.736 919.131,546.187 922.081,541.25C933.279,522.51 945.627,527.841 941.653,534.606C941.45,534.951 920.878,545.195 929.389,562.558C929.389,562.558 936.091,571.124 930.623,572.828C924.598,574.706 919.562,564.637 918.848,559.456C918.226,554.939 918.516,554.11 912.479,551.553C900.703,546.566 892.775,548.34 883.531,548.811Z" style="fill:rgb(53,60,55);"/>
                </g>
                <g transform="matrix(2,0,0,2,-19.927966,-61.156292)">
                    <path d="M872.298,493.558C878.815,522.83 847.34,521.815 848.184,499.486C848.747,484.586 865.057,476.458 872.298,493.558Z" style="fill:rgb(51,58,56);"/>
                </g>
                <g transform="matrix(2,0,0,2,-19.927966,-61.156292)">
                    <path d="M913.758,497.527C917.774,477.754 935.667,481.744 938.127,496.561C941.941,519.535 912.705,525.218 913.758,497.527Z" style="fill:rgb(52,59,57);"/>
                </g>
                <g transform="matrix(2,0,0,2,-19.927966,-61.156292)">
                    <path d="M865.701,462.635C863.884,465.273 851.875,482.711 830.49,481.696C824.002,481.388 823.111,473.125 830.504,472.573C864.222,470.053 855.246,447.986 865.444,450.696C872.304,452.52 866.223,461.835 865.701,462.635Z" style="fill:rgb(54,61,55);"/>
                </g>
                <g transform="matrix(2,0,0,2,-19.927966,-61.156292)">
                    <path d="M953.501,472.481C954.145,472.523 960.982,471.623 961.764,476.452C963.895,489.61 924.191,477.359 918.863,457.413C917.133,450.933 923.718,448.678 926.2,452.697C932.835,463.44 935.201,469.309 953.501,472.481Z" style="fill:rgb(53,63,54);"/>
                </g>
                <g transform="matrix(2,0,0,2,54.925351,15.717718)">
                    <path d="M481.391,295.69C479.809,295.803 479.705,296.427 479.68,296.579C479.221,299.335 480.049,299.338 479.712,331.501C479.693,333.339 479.517,350.184 479.083,354.465C478.009,365.072 478.806,382.233 477.334,383.086C475.322,384.252 474.384,382.972 465.956,356.338C459.89,337.168 459.607,337.273 459.219,335.57C456.03,321.565 442.915,286.049 441.4,280.535C436.54,262.842 435.964,263.023 435.584,261.475C432.403,248.527 417.024,205.498 408.209,165.57C405.816,154.732 399.92,133.165 408.871,101.602C418.137,68.93 446.054,29.699 496.43,22.096C551.793,13.74 591.17,49.41 605.072,76.716C622.509,110.967 620.777,135.83 617.399,157.485C610.46,201.98 578.861,242.968 573.963,250.786C567.141,261.673 553.444,280.989 551.607,283.578C544.133,294.118 545.682,294.825 543.108,307.426C542.078,312.467 532.349,360.089 530.781,370.548C526.797,397.134 516.771,436.916 513.83,464.582C513.542,467.292 510.514,467.087 510.155,464.603C509.355,459.056 504.816,427.583 498.11,395.597C494.259,377.23 494.073,372.024 492.588,364.479C480.164,301.362 484.607,300.245 481.391,295.69Z" style="fill:rgb(253,137,4);"/>
                </g>
                <g transform="matrix(2,0,0,2,54.925351,15.717718)">
                    <path d="M549.262,111.252C537.707,120.979 527.395,112.185 525.714,110.269C522.9,107.062 517.852,119.635 503.463,115.626C496.729,113.75 495.099,107.574 492.49,109.486C490.707,110.792 486.995,115.437 477.593,113.224C470.23,109.192 470.244,108.892 469.429,109.139C468.067,109.553 462.099,113.407 453.513,108.478C444.614,103.37 441.222,81.271 461.509,79.59C464.91,79.308 465.21,78.974 465.928,75.616C466.518,72.855 473.432,60.709 488.38,65.848C491.932,67.069 492.59,67.856 494.886,64.797C502.117,55.163 516.159,56.405 522.057,65.824C525.878,71.928 528.391,61.111 542.427,62.927C555.005,64.554 557.873,77.411 560.456,77.721C567.892,78.612 568.506,77.96 573.415,83.575C581.584,92.918 574.219,113.213 556.458,108.672C553.421,107.895 552.793,106.536 551.052,109.13C550.929,109.314 550.92,109.287 549.262,111.252Z" style="fill:rgb(251,227,183);"/>
                </g>
                <g transform="matrix(2,0,0,2,54.925351,15.717718)">
                    <path d="M549.262,111.252C549.732,111.739 550.392,112.014 550.862,112.5C551.629,113.294 547.883,115.523 544.91,118.683C544.752,118.963 544.594,119.244 544.436,119.524C555.586,131.572 572.981,131.527 573.472,131.644C582.058,133.688 567.578,137.91 567.311,138.009C559.826,140.778 557.77,133.201 548.488,132.901C538.739,132.585 534.151,138.578 531.231,141.203C528.28,143.856 524.024,137.559 523.207,136.761C520.182,133.807 518.066,138.732 517.05,140.141C513.762,144.701 512.13,140.293 511.013,138.915C502.994,129.029 501.185,140.143 497.294,142.117C494.091,143.741 485.055,126.524 468.771,135.992C461.963,139.951 461.068,140.083 450.293,133.851C442.159,129.147 451.669,127.506 457.564,129.301C462.057,130.668 462.126,130.36 466.596,128.763C476.005,125.401 488.843,125.885 477.593,113.224C486.995,115.437 490.707,110.792 492.49,109.486C495.099,107.574 496.729,113.75 503.463,115.626C517.852,119.635 522.9,107.062 525.714,110.269C527.395,112.185 537.707,120.979 549.262,111.252Z" style="fill:rgb(210,85,24);"/>
                </g>
                <g transform="matrix(2,0,0,2,54.925351,15.717718)">
                    <path d="M488.852,212.515C491.857,181.636 523.123,180.267 532.265,201.598C548.868,240.337 490.136,256.756 488.852,212.515Z" style="fill:rgb(57,57,60);"/>
                </g>
                <g transform="matrix(2,0,0,2,54.925351,15.717718)">
                    <path d="M555.725,165.53C551.102,189.21 527.328,173.963 533.887,156.633C537.387,147.384 545.303,148.404 546.49,148.557C555.9,149.77 555.743,163.984 555.725,165.53Z" style="fill:rgb(58,57,58);"/>
                </g>
                <g transform="matrix(2,0,0,2,54.925351,15.717718)">
                    <path d="M491.192,160.534C492.31,187.506 464.527,179.104 468.821,158.566C471.328,146.578 487.381,142.758 491.192,160.534Z" style="fill:rgb(60,57,57);"/>
                </g>
                <g transform="matrix(2,0,0,2,54.925351,15.717718)">
                    <path d="M578.496,124.102C566.909,123.402 567.359,120.813 568.019,120.21C570.073,118.332 574.204,122.08 578.664,111.567C579.368,109.908 580.838,98.675 591.52,102.45C599.901,105.412 594.03,122.801 578.496,124.102Z" style="fill:rgb(253,196,97);"/>
                </g>
                <g transform="matrix(2,0,0,2,54.925351,15.717718)">
                    <path d="M443.465,124.408C427.983,127.232 423.573,102.98 439.5,107.502C446.265,109.422 450.042,120.302 443.465,124.408Z" style="fill:rgb(254,201,106);"/>
                </g>
                <g transform="matrix(2,0,0,2,105.442557,-114.178464)">
                    <path d="M395.86,662.766C385.054,679.241 372.76,689.512 381.511,685.524C383.159,684.773 382.176,683.688 397.475,669.473C398.471,668.547 404.738,662.724 410.065,658.057C422.327,647.312 422.049,647.116 441.548,628.552C445.162,625.111 445.634,628.271 445.186,629.412C443.827,632.872 435.569,644.135 429.18,657.355C425.788,664.374 423.802,663.814 419.22,675.381C418.877,676.247 418.659,676.133 403.915,703.709C399.88,711.258 399.581,710.994 395.499,718.5C394.783,719.818 395.018,719.914 387.034,735.236C376.31,755.817 375.048,755.072 362.006,781.244C360.967,783.33 360.156,782.851 347.565,806.543C346.594,808.37 338.623,820.78 337.005,824.294C336.341,825.736 320.18,851.821 303.129,865.047C291.553,874.026 291.984,874.681 278.695,880.912C256.467,891.333 242.18,892.778 219.513,891.215C196.006,889.594 162.551,874.611 144.061,844.782C104.61,781.139 144.141,723.618 162.213,708.174C166.587,704.436 174.861,692.959 203.294,678.121C220.964,668.9 221.546,670.424 240.377,664.034C269.024,654.315 323.725,648.114 331.192,643.025C337.592,638.662 341.146,635.052 348.342,631.204C355.399,627.431 365.254,618.846 384.757,606.933C388.602,604.583 388.398,604.351 431.588,575.637C437.321,571.826 436.847,571.308 442.618,567.68C457.35,558.421 457.283,558.4 458.623,557.706C461.62,556.156 477.76,540.948 474.621,551.533C474.315,552.565 443.028,596.365 440.603,599.579C437.992,603.039 438.547,603.335 435.854,606.757C431.285,612.563 411.227,642.254 395.86,662.766Z" style="fill:rgb(160,130,221);"/>
                </g>
                <g transform="matrix(2,0,0,2,105.442557,-114.178464)">
                    <path d="M187.627,777.281C190.28,778.622 217.723,794.993 260.56,806.277C277.681,810.787 293.019,809.251 286.08,821.268C252.521,879.382 161.149,844.101 171.481,780.496C173.774,766.379 183.963,775.128 187.627,777.281Z" style="fill:rgb(55,58,66);"/>
                </g>
                <g transform="matrix(2,0,0,2,105.442557,-114.178464)">
                    <path d="M285.839,799.297C279.835,788.343 278.175,784.805 276.381,783.756C275.691,783.352 259.933,782.561 258.501,782.489C257.76,782.451 246.621,781.892 252.456,775.461C265.107,761.518 267.85,762.204 266.541,757.49C266.208,756.293 263.852,747.809 262.508,742.498C257.62,723.184 279.667,740.833 285.543,742.331C287.236,742.762 288.444,743.07 304.562,731.589C315.473,723.816 310.923,741.799 309.853,751.533C309.08,758.563 311.537,758.006 324.185,767.904C336.716,777.712 320.12,778.436 307.473,780.37C298.337,781.768 298.479,803.117 293.542,805.575C289.636,807.521 286.778,800.779 285.839,799.297Z" style="fill:rgb(250,219,90);"/>
                </g>
                <g transform="matrix(2,0,0,2,105.442557,-114.178464)">
                    <path d="M187.538,715.093C198.215,716.272 199.716,717.53 202.838,711.691C203.561,710.337 209.608,699.028 213.818,695.956C221.569,690.302 221.437,718.633 227.439,720.647C240.172,724.921 260.134,725.577 243.257,736.15C230.938,743.867 228.271,743.47 229.111,752.518C230.959,772.417 226.978,772.081 225.429,771.817C219.987,770.89 209.067,755.932 202.61,757.886C190.103,761.671 174.461,770.692 179.747,756.584C185.014,742.523 189.409,740.934 183.665,733.364C174.893,721.805 167.754,713.652 178.512,714.245C178.512,714.245 186.816,715.025 187.538,715.093Z" style="fill:rgb(250,219,89);"/>
                </g>
                <g transform="matrix(2,0,0,2,105.442557,-114.178464)">
                    <path d="M219.363,800.871C245.322,810.785 245.22,811.058 272.485,816.568C272.654,816.602 279.953,816.42 273.283,822.237C270.003,825.097 262.876,831.313 219.401,814.766C191.081,803.986 182.097,794.169 181.288,791.577C180.316,788.465 179.109,780.873 184.299,783.851C203.932,795.117 212.963,798.103 219.363,800.871Z" style="fill:rgb(250,249,250);"/>
                </g>
                <g transform="matrix(2,0,0,2,105.442557,-114.178464)">
                    <path d="M198.526,823.714C206.612,823.699 208.371,822.769 219.515,826.457C229.501,829.762 238.625,838.971 238.691,841.484C238.811,846.038 211.386,843.353 195.753,828.265C192.936,825.546 194.665,824.432 198.526,823.714Z" style="fill:rgb(235,111,104);"/>
                </g>
                <g transform="matrix(2,0,0,2,118.935009,-1.508223)">
                    <path d="M347.402,401.611C359.721,415.803 360.391,415.101 372.81,429.224C379.517,436.852 390.906,444.02 385.558,444.767C384.222,444.953 259.332,378.716 253.404,374.646C253.047,374.401 240.673,368.387 205.618,347.267C204.453,346.566 204.277,346.915 190.546,339.419C174.31,330.557 162.445,317.87 160.344,315.623C157.432,312.509 151.299,308.937 136.738,282.379C136.265,281.516 128.82,261.144 127.415,252.516C122.625,223.117 131.846,183.23 158.107,160.037C162.745,155.942 168.582,147.367 192.518,137.542C222.738,125.138 250.478,131.804 255.38,132.982C302.146,144.218 326.708,175.639 344.043,211.719C345.806,215.39 346.473,220.528 351.403,232.547C353.59,237.879 364.99,287.384 366.127,303.54C366.782,312.843 369.223,322.821 369.627,324.47C372.764,337.293 376.347,335.507 383.298,348.608C383.485,348.961 394.21,364.358 395.162,365.725C406.435,381.91 410.087,387.663 411.324,389.611C413.05,392.331 416.28,395.413 419.872,402.32C421.311,405.087 438.421,429.466 440.064,431.806C451.622,448.274 451.023,448.593 463.047,464.822C469.53,473.573 468.48,474.41 467.676,474.762C463.816,476.454 461.464,472.559 449.686,465.226C447.745,464.017 447.909,463.819 426.459,448.566C424.67,447.294 424.361,447.775 403.735,433.174C399.422,430.121 364.328,405.279 349.563,395.4C329.642,382.072 329.771,377.666 327.688,380.602C326.169,382.742 328.674,382.043 331.545,385.465C334.075,388.481 334.706,387.821 336.999,391.101C337.45,391.746 337.807,391.366 344.251,397.742C346.061,399.533 345.628,399.836 347.402,401.611Z" style="fill:rgb(253,94,93);"/>
                </g>
                <g transform="matrix(2,0,0,2,118.935009,-1.508223)">
                    <path d="M262.717,286.6C256.159,299.077 256.351,299.117 254.073,306.354C252.137,312.503 245.601,308.879 246.039,300.501C248.706,249.478 308.552,246.516 304.435,258.472C303.211,262.027 298.399,259.832 288.374,265.259C283.834,267.717 279.42,269.289 272.672,275.673C264.941,282.988 263.337,285.593 262.717,286.6Z" style="fill:rgb(62,57,61);"/>
                </g>
                <g transform="matrix(2,0,0,2,118.935009,-1.508223)">
                    <path d="M277.499,221.5C283.465,243.778 253.238,240.936 249.487,222.503C246.138,206.039 268.611,200.786 277.499,221.5Z" style="fill:rgb(58,57,63);"/>
                </g>
                <g transform="matrix(2,0,0,2,118.935009,-1.508223)">
                    <path d="M228.346,263.615C243.018,287.912 207.15,291.74 202.762,268.464C201.339,260.916 211.689,244.409 228.346,263.615Z" style="fill:rgb(59,56,63);"/>
                </g>
                <g transform="matrix(2,0,0,2,118.935009,-1.508223)">
                    <path d="M248.687,195.585C239.909,218.391 248.91,220.244 245.011,226.19C236.684,238.887 225.7,206.328 244.923,182.838C257.021,168.055 259.95,176.284 260.222,177.55C260.924,180.819 253.94,186.34 251.876,189.734C250.722,191.632 249.841,193.687 248.687,195.585Z" style="fill:rgb(64,56,60);"/>
                </g>
                <g transform="matrix(2,0,0,2,118.935009,-1.508223)">
                    <path d="M206.502,239.65C208.539,239.731 210.275,239.448 216.45,240.721C226.873,242.868 224.25,252.045 216.535,251.101C189.053,247.738 185.754,257.813 176.553,263.574C171.024,267.036 164.704,260.546 175.575,251.587C190.746,239.086 201.919,240.033 206.502,239.65Z" style="fill:rgb(64,56,60);"/>
                </g>
                <g transform="matrix(2,0,0,2,128.744802,-61.156292)">
                    <path d="M294.682,542.312C296.769,542.409 313.026,541.672 326.464,542.865C327.971,542.998 354.128,543.799 368.497,543.888C369.324,543.893 385.898,543.996 378.32,547.119C375.845,548.139 375.72,547.656 346.495,557.482C344.621,558.112 344.467,557.474 322.608,563.823C292.977,572.43 293.279,573.201 263.589,581.739C258.506,583.2 225.153,593.371 213.559,595.813C199.144,598.85 158.365,617.601 117.535,615.061C113.999,614.842 99.995,611.922 98.478,611.606C93.987,610.67 80.241,604.74 78.686,604.069C68.202,599.547 48.603,585.026 43.001,576.855C37.585,568.955 30.709,563.272 22.858,541.362C15.907,521.96 16.322,487.831 25.718,466.599C37.29,440.45 61.093,418.48 79.522,412.562C84.552,410.946 102.903,401.132 122.503,401.311C139.7,401.468 161.504,402.474 193.357,416.855C227.803,432.405 259.504,458.113 273.364,465.742C282.772,470.92 281.123,474.532 297.421,477.911C304.856,479.453 374.149,493.818 390.542,496.256C392.751,496.585 440.696,507.043 460.433,509.91C464.967,510.568 463.339,513.297 461.603,513.735C457.199,514.848 401.4,522.146 367.47,529.375C367.459,529.377 360.78,529.782 319.552,536.868C319.089,536.948 295.238,539.996 294.741,540.75C294.672,540.854 294.737,540.866 294.682,542.312Z" style="fill:rgb(239,86,178);"/>
                </g>
                <g transform="matrix(2,0,0,2,128.744802,-61.156292)">
                    <path d="M125.521,575.075C125.271,575.048 104.59,574.887 89.738,561.244C72.169,545.105 73.255,534.081 74.364,532.391C76.724,528.795 95.072,538.108 108.536,539.139C148.244,542.178 161.351,537.575 178.512,531.537C191.614,526.928 179.688,555.209 162.248,566.116C145.005,576.9 127.284,575.065 125.521,575.075Z" style="fill:rgb(54,55,62);"/>
                </g>
                <g transform="matrix(2,0,0,2,128.744802,-61.156292)">
                    <path d="M202.559,492.547C191.826,504.961 165.823,516.494 160.845,512.113C146.781,499.735 125.738,456.961 155.461,452.232C171.909,449.615 174.727,467.3 178.393,465.247C181.076,463.745 189.451,456.578 201.353,465.707C214.373,475.693 203.793,490.787 202.559,492.547Z" style="fill:rgb(145,57,94);"/>
                </g>
                <g transform="matrix(2,0,0,2,128.744802,-61.156292)">
                    <path d="M110.731,492.623C96.648,517.705 90.985,513.1 89.455,512.664C63.474,505.258 39.003,484.553 54.909,466.892C64.466,456.28 75.767,462.885 77.33,463.799C83.713,467.529 82.157,461.628 87.568,456.574C100.104,444.867 129.794,455.735 112.093,490.277C111.681,491.082 111.144,491.818 110.731,492.623Z" style="fill:rgb(146,57,95);"/>
                </g>
                <g transform="matrix(2,0,0,2,0.015343,-116.33603)">
                    <path d="M687.532,644.491C687.006,643.91 687.116,643.914 686.588,643.449C680.821,638.376 670.639,627.602 670.534,627.469C665.706,621.385 665.372,621.69 664.959,621.158C659.686,614.382 659.001,615.065 653.411,608.575C647.279,601.455 629.449,583.941 629.333,583.549C627.439,577.158 638.25,586.016 647.576,590.338C666.183,598.961 670.871,603.982 677.404,606.704C678.887,607.322 685.439,610.052 695.211,615.989C702.121,620.187 786.968,665.042 790.663,667.2C799.364,672.282 840.862,692.806 858.305,710.695C883.216,736.243 888.41,758.027 891.33,773.529C894.214,788.842 892.14,806.529 891.71,807.595C891.007,809.341 888.333,825.771 884.134,834.337C867.408,868.457 844.799,878.819 838.581,882.645C817.511,895.61 784.924,896.247 776.541,894.319C756.963,889.817 740.019,886.81 714.389,862.615C700.507,849.511 702.14,848.109 696.266,841.685C689.925,834.749 691.192,833.896 685.405,826.577C681.684,821.872 682.868,821.251 679.205,814.659C665.974,790.849 668.11,789.945 657.851,757.396C653.234,742.75 645.402,694.388 640.419,687.552C621.717,661.898 622.592,661.341 620.885,659.177C618.565,656.236 618.086,655.629 594.618,620.417C593.597,618.886 582.217,601.81 581.872,601.26C564.494,573.564 546.88,554.788 549.423,549.449C549.963,548.316 550.91,548.097 563.19,556.959C615.585,594.769 616.049,594.071 620.275,597.767C624.377,601.355 624.746,600.722 629.166,603.944C631.25,605.463 655.131,622.872 655.216,622.928C668.913,631.894 668.433,632.532 669.626,633.302C678.634,639.117 678.009,639.873 686.545,646.293C687.202,648.028 685.594,649.504 687.478,649.138C689.823,648.682 687.71,644.817 687.532,644.491Z" style="fill:rgb(56,171,121);"/>
                </g>
                <g transform="matrix(2,0,0,2,0.015343,-116.33603)">
                    <path d="M806.218,807.297C815.491,798.686 815.172,798.435 820.646,792.644C824.938,788.102 827.352,795.156 841.131,810.903C853.088,826.657 850.779,843.923 836.461,854.446C817.793,868.167 800.793,853.106 797.674,848.35C787.34,832.707 778.62,826.963 784.757,822.906C797.439,814.523 800.227,811.943 802.415,810.332C803.689,812.324 813.601,827.82 819.863,834.186C820.578,834.913 829.629,837.926 823.112,828.796C817.262,820.6 807.615,808.98 806.218,807.297Z" style="fill:rgb(241,96,120);"/>
                </g>
                <g transform="matrix(2,0,0,2,0.015343,-116.33603)">
                    <path d="M806.218,807.297C804.16,808.701 804.252,808.657 802.415,810.332C800.227,811.943 797.439,814.523 784.757,822.906C778.62,826.963 787.34,832.707 797.674,848.35C788.694,848.279 770.618,850.213 752.848,839.032C739.833,830.842 754.68,826.889 758.347,825.142C819.774,795.878 831.248,751.947 837.573,753.194C841.986,754.064 853.146,775.323 845.729,800.559C844.24,805.627 844.533,808.259 841.131,810.903C827.352,795.156 824.938,788.102 820.646,792.644C815.172,798.435 815.491,798.686 806.218,807.297Z" style="fill:rgb(53,58,63);"/>
                </g>
                <g transform="matrix(2,0,0,2,0.015343,-116.33603)">
                    <path d="M766.159,735.498C766.268,733.675 766.931,722.614 775.756,714.783C794.326,698.304 819.197,713.679 821.234,731.545C825.518,769.134 769.177,778.55 766.159,735.498Z" style="fill:rgb(252,252,251);"/>
                </g>
                <g transform="matrix(2,0,0,2,0.015343,-116.33603)">
                    <path d="M754.487,779.811C755.375,779.911 763.602,780.841 764.649,784.455C767.156,793.111 751.875,784.479 737.014,806.16C735.666,808.126 729.483,820.824 725.829,813.36C725.347,812.374 723.821,802.474 729.805,793.715C739.772,779.125 750.402,780.139 754.487,779.811Z" style="fill:rgb(51,59,63);"/>
                </g>
                <g transform="matrix(2,0,0,2,0.015343,-116.33603)">
                    <path d="M793.696,742.879C775.716,750.204 773.532,721.957 790.51,724.446C796.277,725.292 804.088,735.184 793.696,742.879Z" style="fill:rgb(56,60,66);"/>
                </g>
                <g transform="matrix(2,0,0,2,0.015343,-116.33603)">
                    <path d="M806.218,807.297C807.615,808.98 817.262,820.6 823.112,828.796C829.629,837.926 820.578,834.913 819.863,834.186C813.601,827.82 803.689,812.324 802.415,810.332C804.252,808.657 804.16,808.701 806.218,807.297Z" style="fill:rgb(186,53,72);"/>
                </g>
            </g>
            <g transform="matrix(2.728142,0,0,2.728142,4161.80033,1419.404391)">
                <g transform="matrix(1,0,0,1,24,-225)">
                    <path d="M531.752,41.647C529.85,12.459 548.946,14.734 564.492,14.879C581.996,15.043 584.828,29.046 584.949,34.487C585.825,74 584.412,73.981 584.695,77.402L585.495,77.418C585.67,77.233 586.081,77.552 586.256,77.368C586.581,77.026 585.674,69.812 594.956,48.693C606.032,23.491 623.934,17.425 627.412,16.247C640.743,11.729 654.624,14.776 656.57,15.091C661.437,15.879 677.689,20.917 689.227,39.668C699.305,56.047 702.037,70.605 704.813,81.432C705.54,84.267 712.01,123.175 704.827,135.685C695.189,152.471 665.529,144.334 663.588,143.321C649.508,135.972 653.958,119.024 649.591,118.092C649.44,118.06 640.048,117.94 639.409,118.106C634.297,119.43 642.744,145.674 611.503,145.879C608.32,145.9 591.644,147.27 584.815,136.227C584.559,135.813 584.521,135.226 584.128,134.938C583.937,134.799 583.735,135.261 583.499,135.263C583.269,135.265 583.073,134.812 582.887,134.947C582.431,135.279 583.546,136.214 578.42,140.406C569.129,148.005 543.324,149.31 534.81,136.226C531.724,131.484 532.902,143.637 513.529,145.734C488.452,148.448 483.274,132.924 477.248,122.653C475.109,119.008 474.917,116.696 473.925,118.757C473.305,120.048 478.153,139.737 458.578,144.833C454.087,146.003 439.624,145.996 435.472,144.582C421.301,139.756 419.22,130.584 420.439,111.509C420.808,105.728 418.253,112.078 418.182,112.254C415.55,118.797 403.457,134.818 385.327,142.029C346.998,157.273 301.949,138.293 291.826,96.289C290.458,90.611 290.525,98.335 286.115,102.088C274.684,111.815 251.13,103.719 250.139,108.423C248.123,117.98 260.62,151.116 214.439,144.997C211.454,144.602 203.661,142.457 199.662,135.329C198.076,132.503 197.09,139.489 189.333,143.155C185.224,145.098 150.536,153.478 146.92,127.434C146.439,123.968 146.369,124.023 146.475,120.504C146.668,114.084 144.775,122.529 133.401,132.388C95.761,165.015 12.131,144.024 20.117,70.439C22.416,49.245 37.725,26.742 60.404,18.258C102.055,2.678 141.355,23.987 144.452,39.522C145.311,43.83 147.449,51.376 141.074,60.167C140.549,60.891 138.652,62.782 138.097,63.126C137.038,63.781 136.704,63.563 136.714,64.47C136.727,65.72 139.621,65.596 142.58,67.36C145.026,68.818 145.414,70.604 146.652,68.566C147.15,67.745 145.422,64.318 147.392,49.508C148.115,44.065 142.088,22.597 158.493,16.483C161.194,15.476 183.413,11.583 192.875,19.036C200.884,25.345 198.681,33.798 201.235,30.3C202.743,28.234 202.463,28.084 204.067,26.134C215.09,12.73 234.446,15.195 250.499,14.965C284.412,14.48 286.587,15.38 289.471,16.573C307.064,23.852 298.867,42.578 303.419,39.406C303.573,39.299 310.885,26.484 330.679,17.954C339.755,14.043 388.9,0.398 416.807,45.309C419.073,48.957 419.932,53.784 420.512,49.504C420.626,48.66 419.865,47.202 420.251,37.484C421.296,11.169 442.642,15.168 458.5,14.958C480.031,14.672 512.057,12.428 528.157,37.74C529.597,40.003 529.135,40.178 530.55,42.424C531.365,43.232 531.909,43.53 532.079,42.374C532.117,42.111 531.714,41.91 531.752,41.647ZM90.497,59.938C89.924,60.003 86.14,60.435 83.426,61.325C70.075,65.702 66.602,89.274 80.577,98.334C85.04,101.227 82.266,96.852 82.149,96.714C76.843,90.416 76.982,77.925 81.695,71.64C89.674,60.997 100.158,65.109 101.408,64.303C103.65,62.859 95.878,60.475 90.497,59.938ZM530.454,105.674L531.437,105.45C531.702,87.951 530.821,87.908 532.026,82.564C534.251,72.7 529.17,84.888 529.048,85.181C526.316,91.735 520.709,91.879 524.144,96.752C527.301,101.23 527.199,101.221 530.454,105.674Z" style="fill:rgb(251,251,250);"/>
                </g>
                <g transform="matrix(1,0,0,1,24,-225)">
                    <path d="M421.033,79.5C420.85,84.679 421.694,85.259 418.899,97.587C413.035,123.451 378.615,152.197 337.62,139.065C278.992,120.283 281.013,32.547 344.426,19.207C378.535,12.032 420.144,33.022 421.033,79.5Z" style="fill:rgb(61,60,56);stroke:rgb(9,8,9);stroke-width:0.37px;"/>
                </g>
                <g transform="matrix(1,0,0,1,24,-225)">
                    <path d="M425.965,32.52C428.094,20.275 438.81,19.942 443.503,19.927C485.103,19.792 485.163,19.754 494.44,21.787C538.47,31.436 532.963,72.251 521.946,86.849C518.456,91.473 518.017,91.03 516.639,92.6C515.381,94.034 519.318,98.715 525.125,106.772C542.002,130.184 521.972,139.358 517.429,140.08C491.954,144.132 489.204,133.112 481.792,120.335C474.542,107.839 474.19,105.847 471.483,105.915C467.882,106.006 469.377,108.003 468.942,125.542C468.769,132.541 463.511,139.687 456.467,140.109C447.041,140.674 430.502,143.64 426.33,129.555C424.247,122.526 425.84,36.705 425.965,32.52Z" style="fill:rgb(61,60,56);stroke:rgb(9,8,9);stroke-width:0.37px;"/>
                </g>
                <g transform="matrix(1,0,0,1,24,-225)">
                    <path d="M703.036,117.5C702.905,138.002 697.199,141.534 675.481,140.807C651.167,139.992 659.849,114.293 653.577,113.115C653.074,113.02 636.748,112.986 635.431,113.102C630.813,113.509 635.391,137.609 619.438,140.098C582.331,145.888 585.636,125.939 586.856,102.524C587.599,88.266 595.255,40.067 620.769,24.942C629.943,19.504 642.371,17.393 642.595,20.435C642.76,22.674 642.21,22.637 642.5,48.5C642.54,52.098 644.149,50.527 644.27,50.361C645.192,49.088 643.569,20.371 645.409,19.359C645.526,19.294 671.5,15.08 689.064,49.733C695.108,61.658 702.931,87.935 702.966,111.499C702.966,111.979 702.972,115.687 703.036,117.5Z" style="fill:rgb(58,59,64);stroke:rgb(61,60,56);stroke-width:0.37px;"/>
                </g>
                <g transform="matrix(1,0,0,1,24,-225)">
                    <path d="M89.493,55.036C59.84,57.036 61.35,96.289 80.465,103.577C95.456,109.292 106.692,100.013 103.721,99.151C102.959,98.931 83.879,103.24 83.188,84.511C83.016,79.86 85.15,69.573 97.481,69.194C135.197,68.032 138.578,70.529 141.414,72.624C155.098,82.731 148.587,112.53 131.882,126.92C127.972,130.288 105.193,149.911 68.574,139.264C0.632,119.509 12.71,12.338 96.469,17.983C118.129,19.443 153.089,35.806 137.035,57.111C133.857,61.329 119.853,69.021 105.666,60.225C96.25,54.386 91.312,55.117 89.493,55.036Z" style="fill:rgb(61,60,56);stroke:rgb(9,8,9);stroke-width:0.37px;"/>
                </g>
                <g transform="matrix(1,0,0,1,24,-225)">
                    <path d="M415.959,77.497C416.417,88.858 415.489,101.845 402.104,118.171C385.376,138.576 336.052,152.183 307.687,109.387C293.484,87.958 297.129,40.373 337.394,26.184C347.772,22.527 372.043,18.536 393.27,33.802C410.426,46.141 416.345,66.397 415.959,77.497Z" style="fill:rgb(253,253,253);"/>
                </g>
                <g transform="matrix(1,0,0,1,24,-225)">
                    <path d="M470.498,101.045C463.018,101.274 463.957,104.462 464.045,124.488C464.061,128.207 462.119,134.141 456.435,135.131C455.302,135.329 437.807,137.991 432.994,132.111C429.878,128.305 430.555,118.939 430.415,87.501C430.196,38.292 430.421,36.8 431.08,32.445C432.465,23.296 444.278,24.88 453.5,24.895C485.268,24.946 492.171,24.087 505.56,30.384C526.517,40.24 532.851,72.274 512.645,89.673C508.622,93.138 510.15,94.378 516.141,102.753C522.232,111.269 533.592,124.258 521.316,133.239C518.124,135.574 499.767,140.197 492.799,129.292C481.385,111.427 478.934,101.426 473.55,101.102C472.535,101.04 471.514,101.106 470.498,101.045Z" style="fill:rgb(254,254,254);"/>
                </g>
                <g transform="matrix(1,0,0,1,24,-225)">
                    <path d="M697.943,118.501C698.191,129.592 698.025,137.251 676.515,136.008C657.884,134.931 663.63,121.607 659.594,111.458C658.282,108.158 657.385,107.863 636.496,108.088C625.491,108.207 629.753,116.785 626.057,128.369C625.032,131.583 623.644,137.303 603.469,135.874C588.444,134.81 590.83,122.461 591.923,100.529C592.465,89.642 600.238,41.77 623.688,28.83C627.984,26.46 638.168,21.936 638.901,25.407C639.391,27.728 637.959,50.385 639.931,53.223C641.155,54.986 648.073,57.97 648.263,49.496C648.788,26.038 647.302,24.353 650.454,24.008C651.108,23.936 673.237,24.559 686.726,56.405C699.156,85.75 698.13,113.456 697.943,118.501Z" style="fill:rgb(254,254,253);"/>
                </g>
                <g transform="matrix(1,0,0,1,24,-225)">
                    <path d="M248.5,101.957C247.977,102.055 245.1,101.075 245.076,104.492C244.928,125.326 250.482,145.066 214.548,140.107C199.234,137.994 201.628,119.103 201.553,108.5C201.089,43.218 202.047,40.822 204.219,35.387C208.878,23.733 221.304,21.438 226.459,20.308C229.121,19.724 281.818,19.602 284.549,20.332C303.812,25.479 295.11,49.663 294.153,51.278C289.489,59.159 280.912,57.919 253.501,57.921C250.857,57.921 245.084,57.301 244.807,59.553C243.932,66.674 245.866,66.768 246.46,66.797C267.854,67.83 289.816,58.94 287.075,88.452C286.317,96.612 280.8,99.871 278.568,100.659C276.297,101.46 272.604,102.763 248.5,101.957Z" style="fill:rgb(61,60,56);stroke:rgb(9,8,9);stroke-width:0.37px;"/>
                </g>
                <g transform="matrix(1,0,0,1,24,-225)">
                    <path d="M97.495,74.039C98.616,74.012 99.925,73.981 111.5,73.979C130.415,73.975 134.385,73.628 139.172,76.929C146.651,82.086 148.336,111.708 120.815,128.951C90.534,147.923 43.304,134.231 32.747,99.422C17.515,49.195 60.526,13.396 106.449,24.672C148.057,34.888 136.899,57.074 124.554,58.917C113.983,60.495 111.071,57.415 104.358,53.786C84.113,42.845 63.655,57.425 61.98,75.548C58.459,113.659 98.452,115.889 108.07,103.149C116.896,91.457 101.957,95.212 95.551,94.184C85.726,92.607 84.098,74.709 97.495,74.039Z" style="fill:rgb(254,254,254);"/>
                </g>
                <g transform="matrix(1,0,0,1,24,-225)">
                    <path d="M268.5,52.955C245.389,52.975 245.343,52.718 243.52,53.539C241.103,54.627 239.663,55.83 239.999,67.493C240.163,73.203 246.018,71.454 270.5,71.646C277.284,71.699 283.063,71.774 282.186,86.468C281.452,98.759 275.124,97.096 249.502,97.04C242.138,97.024 240.135,97.166 240.086,104.498C239.929,127.936 242.628,135.327 226.508,135.78C208.14,136.295 206.814,132.215 206.692,117.497C206.054,40.413 207.144,40.258 208.972,36.742C216.165,22.907 231.899,24.909 249.5,24.905C285.457,24.898 286.915,24.121 290.122,29.704C292.157,33.246 293.651,48.533 286.518,51.534C282.409,53.262 282.332,52.957 268.5,52.955Z" style="fill:rgb(254,254,254);"/>
                </g>
                <g transform="matrix(1,0,0,1,24,-225)">
                    <path d="M152.047,33.493C152.2,31.913 153.329,20.226 166.515,19.915C180.758,19.579 193.287,18.182 195.044,34.525C195.23,36.254 195.124,113.622 195.114,120.499C195.092,136.877 190.339,139.602 175.524,140.794C173.42,140.964 154.074,142.521 152.155,128.56C151.964,127.174 151.644,94.301 152.047,33.493Z" style="fill:rgb(61,60,56);stroke:rgb(9,8,9);stroke-width:0.37px;"/>
                </g>
                <g transform="matrix(1,0,0,1,24,-225)">
                    <path d="M580.038,103.501C579.985,127.45 584.954,144.835 548.578,140.045C536.947,138.513 536.782,124.191 536.763,122.499C536.695,116.604 536.607,34.689 537.123,31.438C538.938,20.007 551.899,19.868 553.504,19.851C573.238,19.64 579.793,20.124 579.917,40.493C580.089,68.724 579.846,88.857 580.038,103.501Z" style="fill:rgb(61,60,56);stroke:rgb(9,8,9);stroke-width:0.37px;"/>
                </g>
                <g transform="matrix(1,0,0,1,24,-225)">
                    <path d="M574.965,36.493C575.14,45.018 575.053,125.249 575.036,125.475C574.823,128.271 575.589,137.739 552.483,135.673C540.685,134.618 541.671,130.073 541.601,97.5C541.47,36.644 540.916,36.544 542.317,31.449C544.386,23.923 552.007,24.463 564.486,24.864C574.075,25.171 574.812,31.221 574.965,36.493Z" style="fill:rgb(254,254,254);"/>
                </g>
                <g transform="matrix(1,0,0,1,24,-225)">
                    <path d="M156.947,43.5C157.103,38.853 155.053,25.38 165.535,24.895C185.848,23.956 187.209,26.187 189.218,30.625C190.194,32.782 190.157,32.883 190.153,87.499C190.15,128.773 190.732,129.711 186.375,133.35C183.297,135.92 161.654,139.549 157.664,129.427C156.076,125.397 157.251,66.165 156.947,43.5Z" style="fill:rgb(254,254,254);"/>
                </g>
                <g transform="matrix(1,0,0,1,24,-225)">
                    <path d="M368.506,92.955C381.239,92.5 392.939,86.529 391.347,94.466C387.134,115.468 359.136,125.607 340.742,115.046C324.703,105.837 320.337,88.411 329.501,90.497C334.978,91.743 335.044,91.085 340.568,92.196C342.76,92.636 346.844,93.457 368.506,92.955Z" style="fill:rgb(61,60,56);stroke:rgb(73,73,73);stroke-width:0.37px;"/>
                </g>
                <g transform="matrix(1,0,0,1,24,-225)">
                    <path d="M370.489,50.942C375.916,51.324 376.788,52.313 379.915,47.798C384.388,41.339 385.765,41.677 386.451,41.846C390.256,42.781 389.572,53.554 392.395,54.728C397.03,56.656 409.135,58.361 400.199,64.015C395.235,67.155 393.073,67.483 393.037,70.484C393.009,72.914 394.444,85.608 387.823,81.04C383.185,77.841 382.089,73.816 376.534,75.587C370.057,77.652 364.131,80.135 366.953,72.657C369.357,66.288 371.734,65.777 367.835,60.271C365.397,56.827 362.609,53.617 364.577,51.582C365.353,50.78 365.51,51.15 370.489,50.942Z" style="fill:rgb(250,197,6);stroke:rgb(250,197,6);stroke-width:0.37px;"/>
                </g>
                <g transform="matrix(1,0,0,1,24,-225)">
                    <path d="M357.501,97.068C382.734,96.85 389.917,90.334 386.604,97.546C373.663,125.722 334.976,117.688 328.409,95.512C327.85,93.623 330.347,94.221 330.539,94.267C339.433,96.396 356.57,97.045 357.501,97.068Z" style="fill:rgb(58,59,64);"/>
                </g>
                <g transform="matrix(1,0,0,1,24,-225)">
                    <path d="M346.504,50.938C347.511,50.978 348.52,50.973 349.527,51.014C355.762,51.265 349.284,58.372 346.909,61.77C344.117,65.765 350.124,72.454 349.843,75.535C349.445,79.91 342.983,76.419 338.584,75.134C334.108,73.827 330.048,80.454 327.559,81.608C322.301,84.046 323.1,75.172 322.935,70.458C322.834,67.544 321.686,68.107 314.758,63.165C307.771,58.181 320.932,55.841 323.627,54.766C325.298,54.099 325.695,49.447 327.133,44.384C329.191,37.14 335.056,46.647 336.006,47.877C339.617,52.553 340.559,51.145 346.504,50.938Z" style="fill:rgb(250,197,6);stroke:rgb(250,197,6);stroke-width:0.37px;"/>
                </g>
                <g transform="matrix(1,0,0,1,24,-225)">
                    <path d="M477.495,78.058C464.578,78.052 460.326,79.474 461.73,71.542C462.554,66.89 462.354,53.637 464.6,51.616C467.164,49.31 486.125,47.689 490.594,57.45C491.06,58.465 494.197,65.317 490.352,71.409C486.654,77.27 480.712,77.701 477.495,78.058ZM474.499,55.033C470.923,54.993 468.452,53.261 468.003,58.472C467.893,59.751 465.509,72.382 467.619,73.216C467.888,73.322 482.562,75.331 486.041,69.228C487.658,66.392 487.444,61.587 486.248,59.64C482.759,53.963 476.261,55.069 474.499,55.033ZM476.496,59.926C485.999,60.933 482.105,67.857 478.47,68.081C473.745,68.371 471.363,69.129 472.221,64.46C472.836,61.11 472.606,60.133 476.496,59.926Z" style="fill:rgb(61,60,56);stroke:rgb(73,73,73);stroke-width:0.37px;"/>
                </g>
                <g transform="matrix(1,0,0,1,24,-225)">
                    <path d="M666.594,95.816C659.316,98.275 659.777,91.961 647.537,91.016C628.314,89.532 626.4,101.958 620.676,94.378C615.394,87.383 638.88,70.008 662.551,83.417C666.616,85.719 666.251,86.143 669.288,89.689C670.966,91.647 667.832,94.774 667.62,94.807C667.145,94.879 667.068,95.744 666.594,95.816Z" style="fill:rgb(61,60,56);stroke:rgb(73,73,73);stroke-width:0.37px;"/>
                </g>
                <g transform="matrix(1,0,0,1,24,-225)">
                    <path d="M674.78,64.567C673.54,69.421 666.483,74.202 664.431,73.894C655.572,72.565 653.169,61.028 656.803,54.665C664.415,41.339 677.365,54.452 674.78,64.567Z" style="fill:rgb(61,60,56);stroke:rgb(73,73,73);stroke-width:0.37px;"/>
                </g>
                <g transform="matrix(1,0,0,1,24,-225)">
                    <path d="M627.646,72.826C625.027,73.965 616.949,71.469 616.302,69.565C615.581,67.443 613.364,64.669 614.895,57.597C616.644,49.524 628.985,42.906 633.619,58.469C633.978,59.678 634.067,61.874 633.619,64.226C632.979,67.586 631.245,71.262 627.646,72.826Z" style="fill:rgb(61,60,56);stroke:rgb(73,73,73);stroke-width:0.37px;"/>
                </g>
                <g transform="matrix(1,0,0,1,24,-225)">
                    <path d="M385.391,47.83C385.68,48.09 385.968,48.351 386.257,48.611C386.392,49.175 387.528,53.904 388.06,55.636C389.081,58.962 396.188,59.047 397.722,60.37C398.986,61.461 397.442,61.4 391.379,65.322C387.872,67.591 389.927,75.53 389.413,76.454C388.455,78.175 388.02,76.538 382.242,71.841C379.432,69.557 372.37,73.695 371.517,73.362C369.984,72.762 371.082,72.171 373.611,65.542C375.032,61.821 369.172,58.036 369.448,55.476C369.509,54.914 369.754,54.827 376.497,54.979C380.656,55.072 380.131,53.579 383.768,48.725C384.784,47.37 385.061,47.927 385.391,47.83Z" style="fill:rgb(250,197,6);"/>
                </g>
                <g transform="matrix(1,0,0,1,24,-225)">
                    <path d="M339.501,55.044C346.187,54.754 346.418,54.954 346.471,55.51C346.768,58.625 339.949,60.311 342.962,67.316C343.558,68.702 344.231,70.054 344.828,71.439C346.901,76.252 337.339,68.736 333.705,71.77C333.305,72.104 329.311,75.438 328.734,75.987C324.944,79.592 328.573,68.881 325.307,65.719C324.355,64.797 320.334,62.541 319.146,61.82C314.319,58.884 326.544,60.813 328.278,54.437C328.941,51.999 329.44,45.135 331.735,48.226C336.464,54.597 336.695,54.667 339.501,55.044Z" style="fill:rgb(250,197,6);"/>
                </g>
                <g transform="matrix(1,0,0,1,24,-225)">
                    <path d="M643.5,82.071C647.017,82.104 648.632,81.553 655.648,84.022C656.388,84.282 661.089,85.936 664.192,88.83C667.099,91.542 665.003,94.024 661.712,92.132C643.416,81.612 630.215,90.984 626.559,92.643C624.961,93.368 621.464,92.692 624.544,89.543C631.253,82.685 641.872,82.153 643.5,82.071Z" style="fill:rgb(58,59,64);"/>
                </g>
                <g transform="matrix(0.673439,0.072351,-0.028179,0.262289,240.892427,-234.828684)">
                    <path d="M666.398,68.3C654.887,71.608 657.88,54.237 668.041,52.037C670.655,51.471 672.548,50.735 671.3,61.498C670.535,68.091 669.997,66.555 666.398,68.3Z" style="fill:white;"/>
                </g>
                <g transform="matrix(0.195198,0.020971,-0.024111,0.22443,565.781986,-197.537812)">
                    <path d="M662.663,68.3C659.535,68.758 655.087,67.13 655.087,67.13L660.796,53.426C660.796,53.426 665.777,52.527 667.543,53.426C669.16,54.25 671.301,57.269 671.3,61.498C671.298,66.824 666.262,66.555 662.663,68.3Z" style="fill:white;"/>
                </g>
                <g transform="matrix(1,0,0,0.289337,24,-187.668075)">
                    <path d="M617.969,63.465C617.985,62.942 617.566,59.751 618.964,56.705C619.099,56.41 619.843,54.789 621.564,53.597C630.603,47.333 633.841,70.834 624.536,68.333C618.215,66.634 618.454,65.827 617.969,63.465Z" style="fill:white;stroke:white;stroke-width:0.5px;"/>
                </g>
                <g transform="matrix(1.777957,0.413394,-0.413394,1.777957,-458.487497,-570.948679)">
                    <path d="M671.036,98.451C671.122,98.113 671.085,97.752 671.17,97.414C673.272,89.079 676.109,99.616 675.551,101.517C675.428,101.936 670.838,107.612 671.036,98.451Z" style="fill:rgb(99,180,234);"/>
                </g>
                <g transform="matrix(3.395157,0,0,2.207111,-1452.83675,-320.809855)">
                    <path d="M618.953,77.509C618.166,86.201 614.359,82.12 614.179,81.648C612.858,78.174 618.934,71.247 618.987,76.44C618.99,76.797 618.95,77.153 618.953,77.509Z" style="fill:rgb(99,180,234);"/>
                </g>
                <g transform="matrix(2.285268,0,0,2.285268,-840.294075,-328.399982)">
                    <path d="M674.913,80.528C672.073,88.732 668.453,76.263 670.727,74.856C671.714,74.246 673.255,76.367 673.405,76.573C675.296,79.175 674.746,79.468 674.913,80.528Z" style="fill:rgb(99,180,234);"/>
                </g>
                <g transform="matrix(0.631407,-0.216663,0.216663,0.631407,64.473236,-592.982128)">
                    <path d="M198.526,823.714C206.612,823.699 208.371,822.769 219.515,826.457C229.501,829.762 238.625,838.971 238.691,841.484C238.811,846.038 211.386,843.353 195.753,828.265C192.936,825.546 194.665,824.432 198.526,823.714Z" style="fill:rgb(235,111,104);"/>
                </g>
            </g>
        </g>
    </g>
</svg>
